<?xml version="1.0" encoding="UTF-8"?>
<svg id="Layer_2" data-name="Layer 2" xmlns="http://www.w3.org/2000/svg" viewBox="0 0 282.96 57.95">
  <defs>
    <style>
      .cls-1 {
        fill: #726658;
      }

      .cls-2 {
        fill: #231f20;
      }
    </style>
  </defs>
  <g id="Layer_1-2" data-name="Layer 1">
    <path class="cls-1" d="M90.07,34.41c2.41-2.43,3.63-5.22,3.63-8.27,0-2.7-.99-5.19-2.95-7.4l-.13-.15.11-.16c1.45-2.06,2.19-4.24,2.19-6.49,0-3.05-1.22-5.84-3.63-8.27-2.41-2.43-5.44-3.67-9-3.67H0v38.08h81.07c3.57,0,6.6-1.23,9-3.67ZM9.53,9.53h70.77c.73,0,1.32.05,1.76.16.48.12.81.34,1,.65.17.29.27.52.3.7.03.17.04.45.04.85s-.01.68-.04.85c-.03.19-.13.42-.3.7-.19.31-.53.53-1,.65-.43.11-1.01.16-1.76.16H9.53v-4.74ZM9.53,23.8h71.54c.73,0,1.33.05,1.76.16.48.12.81.34,1,.65.17.29.27.52.3.7.03.17.04.46.04.85s-.01.68-.04.85c-.03.19-.13.42-.3.71-.19.32-.53.54-1,.65-.43.11-1.01.16-1.76.16H9.53v-4.74Z"/>
    <g>
      <rect class="cls-1" x="97.21" y="28.55" width="90.31" height="9.53"/>
      <rect class="cls-1" x="97.21" y="14.27" width="38.23" height="9.53"/>
      <rect class="cls-1" x="97.21" y="0" width="90.31" height="9.53"/>
    </g>
    <g>
      <rect class="cls-1" x="192.65" width="90.31" height="9.53"/>
      <rect class="cls-1" x="192.65" y="28.55" width="90.31" height="9.53"/>
      <rect class="cls-1" x="192.65" y="14.27" width="90.31" height="9.53"/>
    </g>
    <path class="cls-1" d="M139.6,14.16h1.57l1.43,7.79,1.42-7.79h1.59v9.75h-1.04v-8.13l-1.55,8.13h-.92l-1.55-8.13v8.13h-.96v-9.75Z"/>
    <path class="cls-1" d="M148.22,21.64v-5.22c0-1.55.79-2.4,2.23-2.4s2.24.85,2.24,2.4v5.22c0,1.55-.79,2.41-2.24,2.41s-2.23-.86-2.23-2.41ZM151.61,21.71v-5.36c0-.92-.42-1.34-1.16-1.34s-1.14.42-1.14,1.34v5.36c0,.93.42,1.35,1.14,1.35s1.16-.42,1.16-1.35Z"/>
    <path class="cls-1" d="M155.3,14.16h2.23c1.5,0,2.2.79,2.2,2.37v5.01c0,1.57-.7,2.37-2.2,2.37h-2.23v-9.75ZM157.5,22.92c.76,0,1.14-.38,1.14-1.34v-5.11c0-.96-.38-1.32-1.14-1.32h-1.11v7.77h1.11Z"/>
    <path class="cls-1" d="M162.3,21.64v-7.48h1.09v7.56c0,.92.4,1.34,1.13,1.34s1.13-.42,1.13-1.34v-7.56h1.06v7.48c0,1.55-.77,2.41-2.2,2.41s-2.2-.86-2.2-2.41Z"/>
    <path class="cls-1" d="M169.36,14.16h1.09v8.76h2.79v.99h-3.87v-9.75Z"/>
    <path class="cls-1" d="M178.76,21.84h-2.26l-.36,2.08h-1.02l1.81-9.75h1.46l1.82,9.75h-1.1l-.36-2.08ZM178.6,20.89l-.97-5.49-.95,5.49h1.92Z"/>
    <path class="cls-1" d="M182.53,14.16h2.13c1.55,0,2.2.7,2.2,2.21v.6c0,1.07-.35,1.71-1.13,1.96h0c.82.22,1.14.9,1.14,2.05v1.74c0,.45.01.84.14,1.18h-1.1c-.08-.28-.13-.53-.13-1.18v-1.8c0-1.06-.38-1.42-1.3-1.42h-.88v4.4h-1.09v-9.75ZM184.49,18.52c.85,0,1.28-.36,1.28-1.34v-.7c0-.95-.33-1.34-1.14-1.34h-1.02v3.37h.88Z"/>
    <g>
      <path class="cls-2" d="M77.03,48.06h2.17c1.55,0,2.2.7,2.2,2.21v.4c0,1.04-.35,1.69-1.09,1.95v.03c.88.25,1.24.96,1.24,2.05v.84c0,1.5-.72,2.27-2.24,2.27h-2.28v-9.75ZM79.04,52.23c.85,0,1.28-.36,1.28-1.34v-.5c0-.95-.33-1.34-1.14-1.34h-1.06v3.18h.92ZM79.31,56.82c.79,0,1.16-.38,1.16-1.31v-.84c0-1.07-.39-1.46-1.38-1.46h-.98v3.61h1.2Z"/>
      <path class="cls-2" d="M85.31,53.54l-1.96-5.47h1.16l1.39,4.07,1.39-4.07h1.07l-1.96,5.47v4.28h-1.09v-4.28Z"/>
      <path class="cls-2" d="M94.28,48.06h2.17c1.55,0,2.2.7,2.2,2.21v.4c0,1.04-.35,1.69-1.09,1.95v.03c.88.25,1.24.96,1.24,2.05v.84c0,1.5-.73,2.27-2.24,2.27h-2.28v-9.75ZM96.29,52.23c.85,0,1.28-.36,1.28-1.34v-.5c0-.95-.33-1.34-1.14-1.34h-1.06v3.18h.92ZM96.57,56.82c.79,0,1.16-.38,1.16-1.31v-.84c0-1.07-.39-1.46-1.38-1.46h-.97v3.61h1.2Z"/>
      <path class="cls-2" d="M101.28,48.06h4v.99h-2.91v3.18h2.37v.99h-2.37v3.61h2.91v.99h-4v-9.75Z"/>
      <path class="cls-2" d="M109.14,53.54l-1.96-5.47h1.16l1.39,4.07,1.39-4.07h1.07l-1.96,5.47v4.28h-1.09v-4.28Z"/>
      <path class="cls-2" d="M114.05,55.54v-5.22c0-1.55.79-2.4,2.23-2.4s2.24.85,2.24,2.4v5.22c0,1.55-.79,2.41-2.24,2.41s-2.23-.86-2.23-2.41ZM117.44,55.61v-5.36c0-.92-.42-1.34-1.16-1.34s-1.14.42-1.14,1.34v5.36c0,.93.42,1.35,1.14,1.35s1.16-.42,1.16-1.35Z"/>
      <path class="cls-2" d="M121.13,48.06h1.39l2.2,6.96v-6.96h.99v9.75h-1.13l-2.46-7.92v7.92h-.99v-9.75Z"/>
      <path class="cls-2" d="M128.45,48.06h2.23c1.5,0,2.2.79,2.2,2.37v5.01c0,1.57-.7,2.37-2.2,2.37h-2.23v-9.75ZM130.65,56.82c.77,0,1.14-.38,1.14-1.34v-5.11c0-.96-.38-1.32-1.14-1.32h-1.11v7.77h1.11Z"/>
      <path class="cls-2" d="M139.17,48.06h4v.99h-2.91v3.18h2.37v.99h-2.37v3.61h2.91v.99h-4v-9.75Z"/>
      <path class="cls-2" d="M145.52,48.06h1.39l2.2,6.96v-6.96h.99v9.75h-1.13l-2.46-7.92v7.92h-.99v-9.75Z"/>
      <path class="cls-2" d="M152.72,55.54v-5.22c0-1.55.77-2.4,2.2-2.4s2.22.85,2.22,2.4v.79h-1.03v-.86c0-.92-.42-1.34-1.16-1.34s-1.14.42-1.14,1.34v5.38c0,.93.42,1.34,1.14,1.34s1.16-.4,1.16-1.34v-2.19h-1.07v-.99h2.1v3.09c0,1.55-.77,2.41-2.22,2.41s-2.2-.86-2.2-2.41Z"/>
      <path class="cls-2" d="M159.7,48.06h1.09v9.75h-1.09v-9.75Z"/>
      <path class="cls-2" d="M163.51,48.06h1.39l2.2,6.96v-6.96h.99v9.75h-1.13l-2.46-7.92v7.92h-.99v-9.75Z"/>
      <path class="cls-2" d="M170.82,48.06h4v.99h-2.91v3.18h2.37v.99h-2.37v3.61h2.91v.99h-4v-9.75Z"/>
      <path class="cls-2" d="M177.18,48.06h4v.99h-2.91v3.18h2.37v.99h-2.37v3.61h2.91v.99h-4v-9.75Z"/>
      <path class="cls-2" d="M183.53,48.06h2.13c1.55,0,2.2.7,2.2,2.21v.6c0,1.07-.35,1.71-1.13,1.96h0c.82.22,1.14.9,1.14,2.05v1.74c0,.45.01.84.14,1.18h-1.1c-.08-.28-.13-.53-.13-1.18v-1.8c0-1.06-.38-1.42-1.3-1.42h-.88v4.4h-1.09v-9.75ZM185.49,52.42c.85,0,1.28-.36,1.28-1.34v-.7c0-.95-.33-1.34-1.14-1.34h-1.02v3.37h.88Z"/>
      <path class="cls-2" d="M190.51,48.06h1.09v9.75h-1.09v-9.75Z"/>
      <path class="cls-2" d="M194.31,48.06h1.39l2.2,6.96v-6.96h.99v9.75h-1.13l-2.46-7.92v7.92h-.99v-9.75Z"/>
      <path class="cls-2" d="M201.52,55.54v-5.22c0-1.55.77-2.4,2.2-2.4s2.22.85,2.22,2.4v.79h-1.03v-.86c0-.92-.42-1.34-1.16-1.34s-1.14.42-1.14,1.34v5.38c0,.93.42,1.34,1.14,1.34s1.16-.4,1.16-1.34v-2.19h-1.07v-.99h2.1v3.09c0,1.55-.77,2.41-2.22,2.41s-2.2-.86-2.2-2.41Z"/>
    </g>
  </g>
</svg>